<?xml version="1.0" standalone="no"?>
<!DOCTYPE svg PUBLIC "-//W3C//DTD SVG 20010904//EN"
 "http://www.w3.org/TR/2001/REC-SVG-20010904/DTD/svg10.dtd">
<svg version="1.0" xmlns="http://www.w3.org/2000/svg"
 width="280.000000pt" height="236.000000pt" viewBox="0 0 280.000000 236.000000"
 preserveAspectRatio="xMidYMid meet">

<g transform="translate(0.000000,236.000000) scale(0.100000,-0.100000)"
fill="#000000" stroke="none">
<path d="M1238 2210 c-80 -13 -232 -65 -296 -102 -79 -45 -159 -116 -227 -201
-33 -41 -70 -80 -83 -86 -28 -14 -61 -84 -62 -131 0 -20 -9 -60 -19 -90 -10
-30 -40 -150 -65 -267 -71 -332 -116 -433 -265 -596 -208 -228 -255 -345 -170
-421 28 -25 38 -28 78 -24 70 7 211 81 324 171 l29 22 21 -28 c89 -115 132
-148 258 -202 46 -19 102 -44 124 -55 22 -11 64 -26 93 -33 56 -14 75 -31 66
-59 -3 -10 1 -18 10 -20 11 -2 13 -7 6 -17 -14 -23 -43 5 -30 29 7 14 5 23 -7
36 -17 16 -18 16 -27 -15 -6 -20 -20 -38 -38 -47 -15 -8 -28 -19 -28 -24 0 -5
-9 -11 -19 -15 -11 -3 -22 -12 -25 -20 -8 -23 30 -19 54 5 25 25 38 25 63 3
17 -16 43 -18 209 -19 152 -1 191 1 195 12 4 10 24 14 67 14 35 0 66 3 70 7
15 15 45 8 61 -14 16 -21 25 -23 99 -22 45 1 72 4 61 6 -11 3 -44 16 -73 29
-29 13 -59 24 -67 24 -20 0 -27 16 -12 28 6 5 59 13 117 16 187 13 343 63 426
139 28 26 56 47 62 47 6 0 26 -22 46 -48 67 -92 189 -191 258 -210 54 -15 112
14 128 64 31 92 -17 231 -150 444 -24 39 -53 112 -71 180 -17 61 -22 127 -29
360 -4 157 -11 308 -15 336 -5 33 -3 59 4 73 19 35 3 110 -29 140 -15 14 -45
60 -65 101 -90 180 -210 299 -389 385 -139 67 -269 95 -456 100 -85 2 -181 0
-212 -5z m132 -360 c360 -27 668 -93 850 -183 60 -30 65 -34 62 -62 -6 -54
-71 -171 -123 -220 -77 -72 -125 -90 -244 -89 -193 0 -402 85 -430 175 -9 27
-25 24 -62 -14 -55 -57 -116 -72 -293 -72 -149 0 -157 1 -215 28 -128 60 -202
170 -220 329 -6 50 -4 58 14 68 77 41 395 60 661 40z m-714 -102 c-1 -40 -3
-43 -30 -46 -28 -3 -29 -2 -22 29 14 69 55 82 52 17z m1693 -155 c5 -10 11
-31 12 -48 3 -25 1 -29 -16 -27 -31 6 -37 16 -30 56 8 39 19 46 34 19z m-857
-189 c88 -100 378 -172 534 -133 52 13 64 6 114 -70 50 -75 53 -104 31 -259
-43 -296 -45 -318 -32 -407 6 -46 20 -109 31 -141 26 -75 25 -87 -9 -127 -119
-135 -476 -177 -941 -111 -274 39 -485 113 -609 212 -43 35 -101 114 -101 139
0 7 15 36 33 65 71 113 93 203 112 468 8 109 19 209 24 223 13 34 77 104 121
132 34 21 35 21 65 4 64 -38 150 -51 294 -46 149 5 223 22 268 62 16 13 29 25
31 25 1 0 17 -16 34 -36z m-172 -1283 c91 -12 187 -21 213 -21 40 0 48 -3 45
-17 -4 -22 -28 -28 -183 -43 -115 -11 -137 -11 -194 4 -99 25 -115 36 -119 75
l-3 33 38 -5 c21 -4 112 -15 203 -26z m-206 -72 c-5 -8 1 -10 19 -7 15 3 24 1
21 -3 -3 -5 0 -9 7 -9 7 0 10 -2 8 -5 -9 -8 -80 16 -74 26 4 5 11 9 16 9 6 0
7 -5 3 -11z"/>
<path d="M932 1810 c-45 -5 -108 -14 -139 -20 l-56 -12 7 -61 c13 -123 88
-228 194 -268 106 -39 331 -36 414 7 15 8 42 30 60 50 44 48 74 44 113 -18 54
-86 221 -151 386 -151 74 0 95 4 142 27 86 42 171 146 179 221 3 25 -3 32 -40
53 -55 31 -284 95 -432 121 -258 46 -647 70 -828 51z"/>
<path d="M833 1270 c-116 -52 -139 -226 -41 -317 133 -124 349 -8 324 175 -17
127 -160 199 -283 142z m8 -48 c-19 -36 -13 -72 18 -103 48 -48 116 -38 146
22 13 25 14 37 5 65 -7 20 -10 37 -8 39 6 7 36 -21 62 -59 58 -86 20 -204 -78
-241 -112 -43 -226 32 -226 149 0 59 13 92 52 127 34 32 46 32 29 1z"/>
<path d="M1855 1166 c-38 -17 -91 -73 -104 -109 -14 -36 -14 -108 0 -144 15
-40 57 -82 104 -104 138 -64 290 49 272 203 -7 55 -32 95 -84 135 -43 33 -138
42 -188 19z m-7 -62 c-23 -63 18 -124 83 -124 67 0 117 68 89 120 -17 32 -4
37 26 9 89 -82 61 -236 -49 -278 -69 -27 -143 -7 -190 49 -58 69 -54 160 11
224 19 20 37 35 38 33 2 -2 -1 -17 -8 -33z"/>
<path d="M1045 380 c-6 -11 30 -31 107 -59 88 -33 179 -51 263 -51 105 0 235
33 214 55 -3 2 -39 -2 -80 -11 -104 -22 -248 -14 -354 21 -44 14 -90 33 -102
41 -26 16 -39 18 -48 4z"/>
</g>
</svg>
